<?xml version="1.0" encoding="UTF-8"?>
<svg version="1.1" xmlns="http://www.w3.org/2000/svg" width="500" height="500">
<path d="M0 0 C1.04929687 0.40992188 2.09859375 0.81984375 3.1796875 1.2421875 C16.65029607 6.65281975 30.04695892 12.71786261 42 21 C43.47919922 21.97839844 43.47919922 21.97839844 44.98828125 22.9765625 C56.52509511 30.7241176 67.80919328 39.29083758 77.41015625 49.375 C79.16726747 51.23136784 79.16726747 51.23136784 82.0625 53.5 C85.00064925 56.00055256 87.405581 58.58944316 89.89453125 61.5234375 C91.49536964 63.40642736 93.11584469 65.2586747 94.76171875 67.1015625 C101.53999815 74.75314418 107.43928045 82.67029618 112.91552734 91.29833984 C113.89205003 92.8306143 114.89189897 94.34796277 115.89453125 95.86328125 C127.14427073 113.00453215 136.16008762 132.0991379 141.1484375 152.02734375 C141.96031668 155.11516936 141.96031668 155.11516936 143.4765625 158.3515625 C152.33486457 179.56606028 153.27387309 209.26855259 152 232 C151.92821533 233.28632324 151.92821533 233.28632324 151.85498047 234.59863281 C151.43487471 241.4232568 150.78037511 248.20776149 150 255 C149.90299805 255.886875 149.80599609 256.77375 149.70605469 257.6875 C148.13164307 271.12247911 144.43513466 283.70970329 140.1875 296.5 C139.93728088 297.25832123 139.68706177 298.01664246 139.42926025 298.79794312 C134.9952463 312.12581664 129.4655119 324.74730344 122.8125 337.125 C122.49603516 337.73085938 122.17957031 338.33671875 121.85351562 338.9609375 C119.88772635 342.64429011 117.64373049 345.78108663 115 349 C113.93558276 350.65222975 112.89447145 352.31966515 111.875 354 C103.92168342 366.57733785 94.32078626 377.34992162 84 388 C83.22293701 388.80195801 83.22293701 388.80195801 82.43017578 389.62011719 C69.78805963 402.5980849 56.0456157 413.34982885 40.69970703 422.92675781 C39.11731104 423.92592655 37.55572373 424.95784252 35.99609375 425.9921875 C10.84406369 442.32297104 -21.27207424 453.41730255 -51 457 C-51.89154785 457.11134277 -52.7830957 457.22268555 -53.70166016 457.33740234 C-67.47021152 458.98923812 -81.14699523 459.33664975 -95 459 C-95.76731445 458.98598145 -96.53462891 458.97196289 -97.32519531 458.95751953 C-118.17464283 458.51146827 -140.79538697 455.32632434 -160 447 C-162.13985581 446.31438913 -164.2861654 445.64869453 -166.4375 445 C-173.64165482 442.69854224 -180.49568172 439.69085038 -187.375 436.5625 C-188.3848999 436.10810547 -189.3947998 435.65371094 -190.43530273 435.18554688 C-195.94663032 432.63899294 -201.0249163 429.86651591 -205.99438477 426.37329102 C-208.12405826 424.91505445 -210.3140321 423.64084697 -212.5625 422.375 C-223.58788565 415.8147238 -233.6625564 407.6700561 -242.9609375 398.86328125 C-244.86335432 396.95448232 -244.86335432 396.95448232 -247 396 C-247 395.34 -247 394.68 -247 394 C-248.32 393.34 -249.64 392.68 -251 392 C-251 391.34 -251 390.68 -251 390 C-251.86625 389.62875 -251.86625 389.62875 -252.75 389.25 C-255.32939979 387.81700012 -257.06121592 386.21575324 -259 384 C-259 383.34 -259 382.68 -259 382 C-259.66 382 -260.32 382 -261 382 C-262.7325224 380.01691881 -264.34273303 378.02785192 -265.9375 375.9375 C-266.42259033 375.3091626 -266.90768066 374.6808252 -267.4074707 374.03344727 C-268.94751348 372.02913236 -270.47534564 370.01603978 -272 368 C-272.48275391 367.36449219 -272.96550781 366.72898437 -273.46289062 366.07421875 C-279.82780328 357.66313035 -285.6714915 349.11358695 -291 340 C-291.67095703 338.87078125 -291.67095703 338.87078125 -292.35546875 337.71875 C-299.41030522 325.48123431 -304.4986941 312.47871549 -309.20654297 299.20263672 C-309.9132789 297.24073779 -310.65906418 295.29300552 -311.41015625 293.34765625 C-316.96832243 278.78084152 -319.45896953 263.45896886 -321 248 C-321.16822266 246.42025391 -321.16822266 246.42025391 -321.33984375 244.80859375 C-324.62712672 208.10810583 -319.98679706 172.37943193 -307 138 C-306.74605469 137.31711914 -306.49210937 136.63423828 -306.23046875 135.93066406 C-302.49257942 125.93131039 -297.93874992 116.44616798 -293 107 C-292.54625 106.1234375 -292.0925 105.246875 -291.625 104.34375 C-288.53557516 98.57140359 -284.83597874 93.29730397 -281 88 C-280.34644531 87.08863281 -279.69289063 86.17726563 -279.01953125 85.23828125 C-267.51817061 69.28765151 -267.51817061 69.28765151 -260.75 62.74609375 C-258.90242667 60.90264447 -257.20145063 58.97869593 -255.5 57 C-243.10439216 42.67189205 -227.92781083 31.13406964 -212 21 C-210.906875 20.29230469 -209.81375 19.58460937 -208.6875 18.85546875 C-194.04621452 9.5861951 -178.04977707 2.69748571 -161.62890625 -2.74609375 C-158.03262893 -3.91857506 -158.03262893 -3.91857506 -154.8515625 -5.46875 C-109.88562609 -25.1362238 -43.95272245 -17.7058691 0 0 Z " fill="#1E1F1F" transform="translate(335,28)"/>
<path d="M0 0 C1.04929687 0.40992188 2.09859375 0.81984375 3.1796875 1.2421875 C16.65029607 6.65281975 30.04695892 12.71786261 42 21 C43.47919922 21.97839844 43.47919922 21.97839844 44.98828125 22.9765625 C56.52509511 30.7241176 67.80919328 39.29083758 77.41015625 49.375 C79.16726747 51.23136784 79.16726747 51.23136784 82.0625 53.5 C85.00064925 56.00055256 87.405581 58.58944316 89.89453125 61.5234375 C91.49536964 63.40642736 93.11584469 65.2586747 94.76171875 67.1015625 C101.53999815 74.75314418 107.43928045 82.67029618 112.91552734 91.29833984 C113.89205003 92.8306143 114.89189897 94.34796277 115.89453125 95.86328125 C127.14427073 113.00453215 136.16008762 132.0991379 141.1484375 152.02734375 C141.96031668 155.11516936 141.96031668 155.11516936 143.4765625 158.3515625 C152.33486457 179.56606028 153.27387309 209.26855259 152 232 C151.92821533 233.28632324 151.92821533 233.28632324 151.85498047 234.59863281 C151.43487471 241.4232568 150.78037511 248.20776149 150 255 C149.90299805 255.886875 149.80599609 256.77375 149.70605469 257.6875 C148.13164307 271.12247911 144.43513466 283.70970329 140.1875 296.5 C139.93728088 297.25832123 139.68706177 298.01664246 139.42926025 298.79794312 C134.9952463 312.12581664 129.4655119 324.74730344 122.8125 337.125 C122.49603516 337.73085938 122.17957031 338.33671875 121.85351562 338.9609375 C119.88772635 342.64429011 117.64373049 345.78108663 115 349 C113.93558276 350.65222975 112.89447145 352.31966515 111.875 354 C103.92168342 366.57733785 94.32078626 377.34992162 84 388 C83.22293701 388.80195801 83.22293701 388.80195801 82.43017578 389.62011719 C69.78805963 402.5980849 56.0456157 413.34982885 40.69970703 422.92675781 C39.11731104 423.92592655 37.55572373 424.95784252 35.99609375 425.9921875 C10.84406369 442.32297104 -21.27207424 453.41730255 -51 457 C-51.89154785 457.11134277 -52.7830957 457.22268555 -53.70166016 457.33740234 C-67.47021152 458.98923812 -81.14699523 459.33664975 -95 459 C-95.76731445 458.98598145 -96.53462891 458.97196289 -97.32519531 458.95751953 C-118.17464283 458.51146827 -140.79538697 455.32632434 -160 447 C-162.13985581 446.31438913 -164.2861654 445.64869453 -166.4375 445 C-173.64165482 442.69854224 -180.49568172 439.69085038 -187.375 436.5625 C-188.3848999 436.10810547 -189.3947998 435.65371094 -190.43530273 435.18554688 C-195.94663032 432.63899294 -201.0249163 429.86651591 -205.99438477 426.37329102 C-208.12405826 424.91505445 -210.3140321 423.64084697 -212.5625 422.375 C-223.58788565 415.8147238 -233.6625564 407.6700561 -242.9609375 398.86328125 C-244.86335432 396.95448232 -244.86335432 396.95448232 -247 396 C-247 395.34 -247 394.68 -247 394 C-248.32 393.34 -249.64 392.68 -251 392 C-251 391.34 -251 390.68 -251 390 C-251.86625 389.62875 -251.86625 389.62875 -252.75 389.25 C-255.32939979 387.81700012 -257.06121592 386.21575324 -259 384 C-259 383.34 -259 382.68 -259 382 C-259.66 382 -260.32 382 -261 382 C-262.7325224 380.01691881 -264.34273303 378.02785192 -265.9375 375.9375 C-266.42259033 375.3091626 -266.90768066 374.6808252 -267.4074707 374.03344727 C-268.94751348 372.02913236 -270.47534564 370.01603978 -272 368 C-272.48275391 367.36449219 -272.96550781 366.72898437 -273.46289062 366.07421875 C-279.82780328 357.66313035 -285.6714915 349.11358695 -291 340 C-291.67095703 338.87078125 -291.67095703 338.87078125 -292.35546875 337.71875 C-299.41030522 325.48123431 -304.4986941 312.47871549 -309.20654297 299.20263672 C-309.9132789 297.24073779 -310.65906418 295.29300552 -311.41015625 293.34765625 C-316.96832243 278.78084152 -319.45896953 263.45896886 -321 248 C-321.16822266 246.42025391 -321.16822266 246.42025391 -321.33984375 244.80859375 C-324.62712672 208.10810583 -319.98679706 172.37943193 -307 138 C-306.74605469 137.31711914 -306.49210937 136.63423828 -306.23046875 135.93066406 C-302.49257942 125.93131039 -297.93874992 116.44616798 -293 107 C-292.54625 106.1234375 -292.0925 105.246875 -291.625 104.34375 C-288.53557516 98.57140359 -284.83597874 93.29730397 -281 88 C-280.34644531 87.08863281 -279.69289063 86.17726563 -279.01953125 85.23828125 C-267.51817061 69.28765151 -267.51817061 69.28765151 -260.75 62.74609375 C-258.90242667 60.90264447 -257.20145063 58.97869593 -255.5 57 C-243.10439216 42.67189205 -227.92781083 31.13406964 -212 21 C-210.906875 20.29230469 -209.81375 19.58460937 -208.6875 18.85546875 C-194.04621452 9.5861951 -178.04977707 2.69748571 -161.62890625 -2.74609375 C-158.03262893 -3.91857506 -158.03262893 -3.91857506 -154.8515625 -5.46875 C-109.88562609 -25.1362238 -43.95272245 -17.7058691 0 0 Z M-250.7890625 74.58935547 C-256.37316172 80.67784881 -261.24411102 87.25692426 -266 94 C-266.43570313 94.60166992 -266.87140625 95.20333984 -267.3203125 95.82324219 C-287.90978554 124.3232413 -300.41026825 158.26109531 -305 193 C-305.09498779 193.69270996 -305.18997559 194.38541992 -305.2878418 195.09912109 C-308.13601958 218.99915936 -307.11447232 244.53310319 -302 268 C-301.81808105 268.84820312 -301.63616211 269.69640625 -301.44873047 270.5703125 C-294.33309664 302.6192799 -279.93738957 333.67038202 -259 359 C-258.15337535 360.05056333 -257.30702583 361.10134844 -256.4609375 362.15234375 C-246.26893762 374.64974476 -234.84687981 386.23285165 -222 396 C-221.18160645 396.63301025 -221.18160645 396.63301025 -220.34667969 397.27880859 C-210.70907142 404.7114732 -200.66797623 411.14692833 -190 417 C-189.34950684 417.35690918 -188.69901367 417.71381836 -188.02880859 418.08154297 C-168.77585221 428.48762171 -147.52510505 436.09844671 -126 440 C-124.91041992 440.20737793 -124.91041992 440.20737793 -123.79882812 440.41894531 C-111.2533268 442.73270763 -98.84706189 443.29305997 -86.125 443.3125 C-85.39391022 443.31599457 -84.66282043 443.31948914 -83.90957642 443.3230896 C-73.45335094 443.35083118 -63.34430074 442.48431534 -53 441 C-51.50683942 440.81888133 -50.01341967 440.63985769 -48.51953125 440.46484375 C-2.20690422 433.87664075 38.54284597 409.6597718 72 378 C72.680625 377.36191406 73.36125 376.72382813 74.0625 376.06640625 C79.18776116 371.11910555 83.59469084 365.58649661 88 360 C89.10021484 358.6078125 89.10021484 358.6078125 90.22265625 357.1875 C105.4654016 337.4015025 116.7848197 315.53718131 125 292 C125.25120605 291.29810547 125.50241211 290.59621094 125.76123047 289.87304688 C133.35938389 268.46534187 136.43885067 244.83185143 136.375 222.1875 C136.37468277 221.13024719 136.37468277 221.13024719 136.37435913 220.05163574 C136.33219814 205.79362945 134.75794388 191.99820819 132 178 C131.81808105 177.06269043 131.63616211 176.12538086 131.44873047 175.15966797 C127.49152542 155.41607925 120.6027815 136.67959209 111 119 C110.47237061 118.00709961 110.47237061 118.00709961 109.93408203 116.99414062 C100.06491718 98.45341744 87.4237012 82.23278693 73 67 C72.1234375 66.06929688 71.246875 65.13859375 70.34375 64.1796875 C63.42064908 57.0326039 55.93970379 50.96827276 48 45 C47.07316406 44.28972656 46.14632813 43.57945313 45.19140625 42.84765625 C21.00416095 24.69823742 -8.68646213 11.02995959 -38.375 5.375 C-39.90640625 5.06949219 -39.90640625 5.06949219 -41.46875 4.7578125 C-44.64067064 4.13773779 -47.81668938 3.558585 -51 3 C-52.09143311 2.80728516 -53.18286621 2.61457031 -54.30737305 2.41601562 C-63.60188708 0.92240868 -72.67808715 0.68111306 -82.0625 0.75 C-82.83001587 0.75343414 -83.59753174 0.75686829 -84.38830566 0.76040649 C-149.73439358 1.10225282 -205.95897989 27.53452416 -250.7890625 74.58935547 Z " fill="#02FBF5" transform="translate(335,28)"/>
<path d="M0 0 C1.21957649 -0.01210762 1.21957649 -0.01210762 2.46379089 -0.02445984 C4.18246376 -0.03823058 5.90116317 -0.04898376 7.61987305 -0.05688477 C9.34066044 -0.06831055 11.06141511 -0.08860984 12.78198242 -0.1184082 C30.63702326 -0.42652083 50.95396728 1.08096688 64.98828125 13.515625 C70.37007511 19.31214491 73.0540271 24.43047831 72.8515625 32.421875 C71.5547268 40.84546546 66.77962601 48.09329714 60.203125 53.36328125 C38.29002044 68.1154414 15.87850789 67.82733092 -9.58203125 67.23828125 C-7.90005957 72.86424462 -7.90005957 72.86424462 -6.20922852 78.48754883 C-4.71527905 83.44194227 -3.24115997 88.40083955 -1.80078125 93.37109375 C-1.20713737 95.38935413 -0.6133897 97.40758399 -0.01953125 99.42578125 C0.24867432 100.3681665 0.51687988 101.31055176 0.79321289 102.28149414 C2.61966887 108.4350609 5.06568355 113.76442434 8.41796875 119.23828125 C9.07796875 119.23828125 9.73796875 119.23828125 10.41796875 119.23828125 C12.14956376 117.46159262 13.78764182 115.66673043 15.41796875 113.80078125 C32.66034649 94.63001688 54.17779343 82.53111148 80.21875 80.8515625 C88.18160079 80.5553963 96.66619277 80.41005139 103.41796875 85.23828125 C107.32543197 89.04483437 109.02596214 91.37069458 109.11328125 97.04711914 C109.09007812 97.74957764 109.066875 98.45203613 109.04296875 99.17578125 C109.0275 99.92013428 109.01203125 100.6644873 108.99609375 101.43139648 C108.41519691 114.58116948 102.34661144 126.06396302 96.33496094 137.48486328 C94.99284562 140.05117644 93.70508564 142.64406118 92.41796875 145.23828125 C93.04960937 144.40167969 93.68125 143.56507813 94.33203125 142.703125 C100.9034567 134.10789552 107.90316567 126.08424518 115.42138672 118.30664062 C116.82226637 116.8553992 118.21657179 115.39779655 119.60595703 113.93554688 C141.55846587 90.87110288 141.55846587 90.87110288 153.91796875 89.98828125 C157.41796875 90.23828125 157.41796875 90.23828125 159.10546875 91.5078125 C161.0325166 94.04853333 160.94378781 96.50663728 160.82421875 99.60546875 C159.51439907 108.09410782 154.64831143 115.92370459 150.80078125 123.50610352 C147.57354043 129.86951796 144.48914648 136.2983157 141.41796875 142.73828125 C140.92474121 143.77251221 140.43151367 144.80674316 139.92333984 145.87231445 C138.75376128 148.32710554 137.58522869 150.782387 136.41796875 153.23828125 C140.03571176 149.6729693 143.49959997 145.99527286 146.91796875 142.23828125 C155.6111153 132.76204208 164.5540936 123.50600206 174.41796875 115.23828125 C175.41570312 114.38621094 176.4134375 113.53414063 177.44140625 112.65625 C183.19613522 107.74645465 188.99032046 102.90216802 194.94140625 98.23046875 C196.75018293 96.77545912 198.52163792 95.27370464 200.26953125 93.74609375 C201.22601563 92.91851562 202.1825 92.0909375 203.16796875 91.23828125 C204.45960938 90.09359375 204.45960938 90.09359375 205.77734375 88.92578125 C208.91182466 86.92268103 210.76693255 86.89666383 214.41796875 87.23828125 C215.12562624 88.43492095 215.80821996 89.64639701 216.48046875 90.86328125 C216.86332031 91.53617187 217.24617188 92.2090625 217.640625 92.90234375 C218.71934873 96.14393566 218.40644976 97.97091724 217.41796875 101.23828125 C215.80176024 103.35089665 214.27563064 105.12222772 212.41796875 106.98828125 C211.4060011 108.05054419 210.39428552 109.11304732 209.3828125 110.17578125 C208.87862793 110.6965625 208.37444336 111.21734375 207.85498047 111.75390625 C192.02046104 128.11032456 179.11423747 147.03164602 168.48046875 167.11328125 C167.80745728 168.37821411 167.80745728 168.37821411 167.12084961 169.66870117 C160.93941471 181.46464511 160.93941471 181.46464511 159.16796875 194.42578125 C159.2040625 195.34746094 159.24015625 196.26914062 159.27734375 197.21875 C159.32375 197.88519531 159.37015625 198.55164063 159.41796875 199.23828125 C165.43505139 198.82802562 170.26312583 196.75307763 175.74609375 194.296875 C178.41796875 193.23828125 178.41796875 193.23828125 181.41796875 193.23828125 C181.3515625 194.9765625 181.3515625 194.9765625 180.41796875 197.23828125 C178.10503928 198.84688639 175.96653009 200.14779268 173.48046875 201.42578125 C172.80330811 201.77729248 172.12614746 202.12880371 171.4284668 202.4909668 C166.34507223 205.0130592 161.2048941 207.34494426 155.41796875 206.23828125 C151.63031296 203.00491655 150.72108784 199.75416966 150.14453125 194.96875 C149.2316913 172.11264205 167.01586687 147.26179439 179.41796875 129.23828125 C180.35423651 127.87374584 181.29043005 126.50915949 182.2265625 125.14453125 C184.11462649 122.39445029 186.00720451 119.64755182 187.90234375 116.90234375 C190.10727106 113.7023465 192.27163586 110.47783978 194.41796875 107.23828125 C184.44003928 115.57162244 184.44003928 115.57162244 175.08007812 124.57739258 C173.49971708 126.15659296 171.86686539 127.57994286 170.15625 129.015625 C163.9911063 134.3787357 158.26631697 140.20392493 152.49145508 145.97949219 C150.49384923 147.97491539 148.48837522 149.96219181 146.48242188 151.94921875 C139.33411804 159.0659226 132.57751068 166.23366845 126.41796875 174.23828125 C125.93513428 174.85751465 125.4522998 175.47674805 124.95483398 176.11474609 C123.82283934 177.58156232 122.71288581 179.06532201 121.60546875 180.55078125 C120.89777344 181.49566406 120.19007813 182.44054687 119.4609375 183.4140625 C118.02993638 185.39229158 116.64810702 187.40659268 115.3046875 189.4453125 C113.25631136 192.47758773 111.52986513 194.31186921 108.41796875 196.23828125 C105.10546875 196.48828125 105.10546875 196.48828125 102.41796875 196.23828125 C102.78018136 190.0303595 105.8770938 185.85777956 109.16796875 180.80078125 C135.6790993 141.47232045 135.6790993 141.47232045 150.41796875 97.23828125 C144.85684962 99.29043227 141.25123616 101.79871472 137.04296875 105.92578125 C135.90831273 107.00861012 134.77289348 108.09063977 133.63671875 109.171875 C133.08886719 109.69765137 132.54101562 110.22342773 131.9765625 110.76513672 C129.88821534 112.73899116 127.71999605 114.61320466 125.54296875 116.48828125 C122.19126435 119.45138225 119.24147768 122.57060055 116.35546875 125.984375 C114.44251256 128.20972928 112.46604188 130.36643459 110.46850586 132.51586914 C104.85631189 138.55866131 99.57533706 144.80010955 94.41796875 151.23828125 C93.50754174 152.3459006 92.59603032 153.45262925 91.68359375 154.55859375 C85.79256602 161.74645687 80.2545583 169.12866102 74.91796875 176.73828125 C74.03685425 177.99306274 74.03685425 177.99306274 73.13793945 179.27319336 C67.00279386 187.24127456 67.00279386 187.24127456 64.41796875 196.48828125 C64.41796875 197.39578125 64.41796875 198.30328125 64.41796875 199.23828125 C62.23943173 201.40154815 60.90919763 202.18245979 57.83984375 202.53125 C56.958125 202.49644531 56.07640625 202.46164062 55.16796875 202.42578125 C53.82992187 202.38517578 53.82992187 202.38517578 52.46484375 202.34375 C51.789375 202.30894531 51.11390625 202.27414062 50.41796875 202.23828125 C49.2950858 198.91981712 49.35257969 197.41476612 50.5859375 194.0859375 C51.23905707 192.81372037 51.91439303 191.55278602 52.60546875 190.30078125 C52.98695068 189.59276367 53.36843262 188.88474609 53.76147461 188.15527344 C58.96713891 178.82761613 65.06124143 170.01854073 71.05737305 161.18774414 C93.09188342 130.73361737 93.09188342 130.73361737 99.41796875 95.23828125 C97.58592286 90.88717225 96.1511861 89.64562422 92.04296875 87.36328125 C79.26345421 83.4420254 66.41931527 87.06996936 54.96875 93.03515625 C41.37476514 101.07893427 25.30154651 113.13432779 17.41796875 127.23828125 C17.41796875 128.22828125 17.41796875 129.21828125 17.41796875 130.23828125 C20.56138868 131.80999121 23.97568326 131.47003908 27.41796875 131.23828125 C28.40796875 130.90828125 29.39796875 130.57828125 30.41796875 130.23828125 C31.52429139 127.99655272 31.52429139 127.99655272 32.41796875 125.23828125 C33.28975653 123.13278168 34.16484868 121.02864774 35.04296875 118.92578125 C35.71199219 117.32283203 35.71199219 117.32283203 36.39453125 115.6875 C36.73226562 114.87925781 37.07 114.07101562 37.41796875 113.23828125 C38.40796875 113.23828125 39.39796875 113.23828125 40.41796875 113.23828125 C41.12542884 121.72780234 38.96948353 126.65236858 34.10546875 133.48828125 C29.14661835 138.56245375 25.6889202 140.46741903 18.66796875 140.55078125 C15.56282568 140.4683822 13.38359425 140.22682308 10.41796875 139.23828125 C9.76886721 140.82027756 9.12382181 142.40393849 8.48046875 143.98828125 C8.12082031 144.87 7.76117188 145.75171875 7.390625 146.66015625 C4.53376254 154.23256278 4.0331855 162.68265766 7.04296875 170.30078125 C8.480329 173.03672214 9.48732712 174.29550191 11.91796875 176.30078125 C21.46238583 178.85732154 32.06260192 177.67901793 40.77734375 172.9609375 C42.12509988 172.1124414 43.45648606 171.23677551 44.76171875 170.32421875 C46.41796875 169.23828125 46.41796875 169.23828125 49.41796875 168.23828125 C50.44448248 166.52308378 50.44448248 166.52308378 51.41796875 164.23828125 C52.11921875 163.14515625 52.82046875 162.05203125 53.54296875 160.92578125 C55.64121511 157.30650129 55.82907537 154.43156879 55.41796875 150.23828125 C55.08796875 149.57828125 54.75796875 148.91828125 54.41796875 148.23828125 C59.29296875 149.11328125 59.29296875 149.11328125 60.41796875 150.23828125 C60.66258166 158.22314554 57.78031943 163.60586224 52.47265625 169.33984375 C43.07057777 178.33753175 32.59886772 181.71913887 19.7734375 181.57421875 C11.51294898 180.74720826 6.00155549 176.51101929 0.79296875 170.30078125 C-2.6517095 165.13376388 -2.93587055 160.59133032 -2.89453125 154.55078125 C-2.89179199 153.74930664 -2.88905273 152.94783203 -2.88623047 152.12207031 C-2.75748463 144.81463425 -1.29910879 138.74398123 1.91796875 132.17578125 C2.60378356 128.14661921 1.14212453 126.62169007 -0.953125 123.23046875 C-8.95260755 108.53597563 -14.48559973 89.75941323 -16.58203125 73.23828125 C-17.525625 74.47191406 -17.525625 74.47191406 -18.48828125 75.73046875 C-59.17922286 128.8438661 -59.17922286 128.8438661 -85.58203125 133.23828125 C-100.40904986 134.43092128 -100.40904986 134.43092128 -105.95703125 131.48828125 C-108.92683623 128.94273413 -110.28185486 127.06377256 -110.91796875 123.1953125 C-111.03074769 117.00374882 -109.55779275 112.62634645 -106.58203125 107.23828125 C-106.08445312 106.325625 -105.586875 105.41296875 -105.07421875 104.47265625 C-101.40954426 98.23418712 -97.219006 92.52609869 -90.58203125 89.23828125 C-88.3125 89.56640625 -88.3125 89.56640625 -86.58203125 90.23828125 C-87.30648437 90.90472656 -88.0309375 91.57117188 -88.77734375 92.2578125 C-96.29596815 99.34769211 -103.67871083 106.7571593 -104.20703125 117.67578125 C-103.99358617 120.95554704 -103.71392203 122.05181497 -101.76953125 124.80078125 C-96.9982398 127.93620135 -92.0952016 127.87672741 -86.58203125 127.23828125 C-64.21739004 120.99202587 -46.14813095 100.12842674 -32.58203125 82.23828125 C-31.37164519 80.68345114 -30.15920481 79.13021923 -28.9453125 77.578125 C-25.47800676 73.14139064 -22.02683025 68.69250926 -18.58203125 64.23828125 C-21.55203125 63.90828125 -24.52203125 63.57828125 -27.58203125 63.23828125 C-27.91203125 61.58828125 -28.24203125 59.93828125 -28.58203125 58.23828125 C-26.51953125 56.17578125 -26.51953125 56.17578125 -23.58203125 54.23828125 C-19.18910438 54.3951715 -15.56875103 55.42613589 -11.58203125 57.23828125 C-11.31720947 56.65199951 -11.0523877 56.06571777 -10.77954102 55.46166992 C-9.54141625 53.16287231 -8.21319499 51.5557726 -6.421875 49.6640625 C-5.79724365 49.00051758 -5.1726123 48.33697266 -4.52905273 47.65332031 C-3.86591064 46.95948242 -3.20276855 46.26564453 -2.51953125 45.55078125 C-1.842854 44.83760742 -1.16617676 44.12443359 -0.46899414 43.38964844 C1.48740596 41.33342961 3.45136604 39.28473805 5.41796875 37.23828125 C5.90910156 36.72378418 6.40023437 36.20928711 6.90625 35.67919922 C17.6007882 24.504053 17.6007882 24.504053 23.73046875 23.92578125 C26.41796875 24.23828125 26.41796875 24.23828125 27.41796875 25.23828125 C27.45889812 27.57125558 27.46038598 29.9053335 27.41796875 32.23828125 C26.42796875 32.56828125 25.43796875 32.89828125 24.41796875 33.23828125 C24.41796875 31.58828125 24.41796875 29.93828125 24.41796875 28.23828125 C10.94951133 32.85603808 2.41515664 49.16180232 -5.58203125 60.23828125 C26.19370909 59.91916227 26.19370909 59.91916227 53.41796875 45.23828125 C55.07049934 43.1878944 55.07049934 43.1878944 56.23046875 41.11328125 C56.82794922 40.11941406 56.82794922 40.11941406 57.4375 39.10546875 C60.2348114 33.77831796 60.16855573 28.09434597 59.41796875 22.23828125 C56.79540211 15.89436511 51.93954839 12.98262845 45.8828125 10.24609375 C45.06941406 9.91351563 44.25601563 9.5809375 43.41796875 9.23828125 C42.62132812 8.88765625 41.8246875 8.53703125 41.00390625 8.17578125 C24.28265608 2.1136966 1.21890838 3.50399586 -15.58203125 8.23828125 C-16.73832031 8.55539063 -17.89460938 8.8725 -19.0859375 9.19921875 C-34.38271379 13.85260701 -50.40413439 20.70835989 -62.58203125 31.23828125 C-63.69771484 32.18960938 -63.69771484 32.18960938 -64.8359375 33.16015625 C-70.61095102 38.47784826 -76.04917195 46.09181121 -76.75 54.17578125 C-76.75644531 54.85640625 -76.76289062 55.53703125 -76.76953125 56.23828125 C-76.78371094 56.91890625 -76.79789063 57.59953125 -76.8125 58.30078125 C-76.69143536 60.56442257 -76.69143536 60.56442257 -74.58203125 63.23828125 C-67.51553973 65.59377842 -60.79413804 64.56031882 -54.09375 61.5625 C-45.0705062 56.80529992 -38.23213569 50.71343791 -32.58203125 42.23828125 C-31.92203125 42.23828125 -31.26203125 42.23828125 -30.58203125 42.23828125 C-31.01141158 49.10836647 -36.40787778 54.32733344 -41.14453125 58.86328125 C-51.6733127 67.7115072 -65.07054774 71.38449965 -78.58203125 70.23828125 C-82.84672929 68.72033788 -84.08138913 67.98924444 -86.58203125 64.23828125 C-88.42799374 53.93523482 -83.10728407 44.13923893 -77.546875 35.86328125 C-62.37200639 15.58989814 -36.70882193 4.77514308 -12.35766602 0.69848633 C-8.21438882 0.19347 -4.16898176 0.04049538 0 0 Z " fill="#F6F6F6" transform="translate(194.58203125,157.76171875)"/>
<path d="M0 0 C1.04929687 0.40992188 2.09859375 0.81984375 3.1796875 1.2421875 C16.65029607 6.65281975 30.04695892 12.71786261 42 21 C43.47919922 21.97839844 43.47919922 21.97839844 44.98828125 22.9765625 C56.52509511 30.7241176 67.80919328 39.29083758 77.41015625 49.375 C79.16726747 51.23136784 79.16726747 51.23136784 82.0625 53.5 C85.00064925 56.00055256 87.405581 58.58944316 89.89453125 61.5234375 C91.49536964 63.40642736 93.11584469 65.2586747 94.76171875 67.1015625 C101.53999815 74.75314418 107.43928045 82.67029618 112.91552734 91.29833984 C113.89205003 92.8306143 114.89189897 94.34796277 115.89453125 95.86328125 C127.14427073 113.00453215 136.16008762 132.0991379 141.1484375 152.02734375 C141.96031668 155.11516936 141.96031668 155.11516936 143.4765625 158.3515625 C152.33486457 179.56606028 153.27387309 209.26855259 152 232 C151.92821533 233.28632324 151.92821533 233.28632324 151.85498047 234.59863281 C151.43487471 241.4232568 150.78037511 248.20776149 150 255 C149.90299805 255.886875 149.80599609 256.77375 149.70605469 257.6875 C148.13164307 271.12247911 144.43513466 283.70970329 140.1875 296.5 C139.93728088 297.25832123 139.68706177 298.01664246 139.42926025 298.79794312 C134.9952463 312.12581664 129.4655119 324.74730344 122.8125 337.125 C122.49603516 337.73085938 122.17957031 338.33671875 121.85351562 338.9609375 C119.88772635 342.64429011 117.64373049 345.78108663 115 349 C113.93558276 350.65222975 112.89447145 352.31966515 111.875 354 C103.92168342 366.57733785 94.32078626 377.34992162 84 388 C83.22293701 388.80195801 83.22293701 388.80195801 82.43017578 389.62011719 C69.78805963 402.5980849 56.0456157 413.34982885 40.69970703 422.92675781 C39.11731104 423.92592655 37.55572373 424.95784252 35.99609375 425.9921875 C10.84406369 442.32297104 -21.27207424 453.41730255 -51 457 C-51.89154785 457.11134277 -52.7830957 457.22268555 -53.70166016 457.33740234 C-67.47021152 458.98923812 -81.14699523 459.33664975 -95 459 C-95.76731445 458.98598145 -96.53462891 458.97196289 -97.32519531 458.95751953 C-118.17464283 458.51146827 -140.79538697 455.32632434 -160 447 C-162.13985581 446.31438913 -164.2861654 445.64869453 -166.4375 445 C-173.64165482 442.69854224 -180.49568172 439.69085038 -187.375 436.5625 C-188.3848999 436.10810547 -189.3947998 435.65371094 -190.43530273 435.18554688 C-195.94663032 432.63899294 -201.0249163 429.86651591 -205.99438477 426.37329102 C-208.12405826 424.91505445 -210.3140321 423.64084697 -212.5625 422.375 C-223.58788565 415.8147238 -233.6625564 407.6700561 -242.9609375 398.86328125 C-244.86335432 396.95448232 -244.86335432 396.95448232 -247 396 C-247 395.34 -247 394.68 -247 394 C-248.32 393.34 -249.64 392.68 -251 392 C-251 391.34 -251 390.68 -251 390 C-251.86625 389.62875 -251.86625 389.62875 -252.75 389.25 C-255.32939979 387.81700012 -257.06121592 386.21575324 -259 384 C-259 383.34 -259 382.68 -259 382 C-259.66 382 -260.32 382 -261 382 C-262.7325224 380.01691881 -264.34273303 378.02785192 -265.9375 375.9375 C-266.42259033 375.3091626 -266.90768066 374.6808252 -267.4074707 374.03344727 C-268.94751348 372.02913236 -270.47534564 370.01603978 -272 368 C-272.48275391 367.36449219 -272.96550781 366.72898437 -273.46289062 366.07421875 C-279.82780328 357.66313035 -285.6714915 349.11358695 -291 340 C-291.67095703 338.87078125 -291.67095703 338.87078125 -292.35546875 337.71875 C-299.41030522 325.48123431 -304.4986941 312.47871549 -309.20654297 299.20263672 C-309.9132789 297.24073779 -310.65906418 295.29300552 -311.41015625 293.34765625 C-316.96832243 278.78084152 -319.45896953 263.45896886 -321 248 C-321.16822266 246.42025391 -321.16822266 246.42025391 -321.33984375 244.80859375 C-324.62712672 208.10810583 -319.98679706 172.37943193 -307 138 C-306.74605469 137.31711914 -306.49210937 136.63423828 -306.23046875 135.93066406 C-302.49257942 125.93131039 -297.93874992 116.44616798 -293 107 C-292.54625 106.1234375 -292.0925 105.246875 -291.625 104.34375 C-288.53557516 98.57140359 -284.83597874 93.29730397 -281 88 C-280.34644531 87.08863281 -279.69289063 86.17726563 -279.01953125 85.23828125 C-267.51817061 69.28765151 -267.51817061 69.28765151 -260.75 62.74609375 C-258.90242667 60.90264447 -257.20145063 58.97869593 -255.5 57 C-243.10439216 42.67189205 -227.92781083 31.13406964 -212 21 C-210.906875 20.29230469 -209.81375 19.58460937 -208.6875 18.85546875 C-194.04621452 9.5861951 -178.04977707 2.69748571 -161.62890625 -2.74609375 C-158.03262893 -3.91857506 -158.03262893 -3.91857506 -154.8515625 -5.46875 C-109.88562609 -25.1362238 -43.95272245 -17.7058691 0 0 Z M-249 53 C-249.51788086 53.49741699 -250.03576172 53.99483398 -250.56933594 54.50732422 C-285.66031212 88.28537272 -307.655072 132.51745827 -317 180 C-317.17934082 180.86898926 -317.35868164 181.73797852 -317.54345703 182.63330078 C-323.48903619 212.43204757 -321.23412443 244.47343811 -315 274 C-314.84015625 274.8156543 -314.6803125 275.63130859 -314.515625 276.47167969 C-307.95492742 309.83707919 -290.53556195 342.91455821 -269 369 C-268.29641357 369.85585693 -268.29641357 369.85585693 -267.57861328 370.72900391 C-244.46846932 398.66995277 -215.87249517 420.69780814 -183 436 C-181.92588867 436.50080078 -181.92588867 436.50080078 -180.83007812 437.01171875 C-161.12228773 446.05962252 -140.37523844 451.5964692 -119 455 C-118.31019043 455.11714355 -117.62038086 455.23428711 -116.90966797 455.35498047 C-93.56097022 459.23777602 -69.27785574 457.43487088 -46 454 C-45.11586426 453.87141602 -44.23172852 453.74283203 -43.32080078 453.61035156 C2.29450381 446.61997734 48.22193972 422.37583984 80 389 C85 384 85 384 86.8515625 382.2890625 C127.08849923 344.10055164 148.67836174 283.86035818 150.23046875 229.36328125 C150.77360061 197.68058937 145.89354968 167.71842068 135 138 C134.73493652 137.27006836 134.46987305 136.54013672 134.19677734 135.78808594 C119.49257907 95.98073287 90.89301412 59.41976059 57 34 C56.42894531 33.56751953 55.85789062 33.13503906 55.26953125 32.68945312 C43.52019194 23.85927956 31.10259217 16.63664254 18 10 C17.32211426 9.65630371 16.64422852 9.31260742 15.94580078 8.95849609 C-4.08263959 -0.96312232 -26.91362468 -7.89983217 -49 -11 C-50.07096924 -11.16918945 -50.07096924 -11.16918945 -51.16357422 -11.34179688 C-123.1098235 -22.57664661 -197.13565249 2.59026185 -249 53 Z " fill="#C072E9" transform="translate(335,28)"/>
<path d="M0 0 C4.875 0.875 4.875 0.875 6 2 C6.24461291 9.98486429 3.36235068 15.36758099 -1.9453125 21.1015625 C-10.50554685 29.29361473 -20.02845948 33.18153071 -31.8125 33.0625 C-32.97394531 33.05347656 -34.13539063 33.04445313 -35.33203125 33.03515625 C-36.21246094 33.02355469 -37.09289062 33.01195312 -38 33 C-38 32.67 -38 32.34 -38 32 C-34.44808992 30.96231198 -30.91322321 29.97892695 -27.31640625 29.10546875 C-20.03982187 27.32607507 -14.16702976 25.38807887 -8 21 C-7.01 20.67 -6.02 20.34 -5 20 C-3.97348627 18.28480253 -3.97348627 18.28480253 -3 16 C-1.948125 14.3603125 -1.948125 14.3603125 -0.875 12.6875 C1.22324636 9.06822004 1.41110662 6.19328754 1 2 C0.505 1.01 0.505 1.01 0 0 Z " fill="#EDEDED" transform="translate(249,306)"/>
<path d="M0 0 C14.67660019 16.59456498 12.89328542 59.39211309 12 80 C11.72218982 82.67802114 11.37211874 85.33265286 11 88 C10.67 88 10.34 88 10 88 C9.98541748 87.17201904 9.97083496 86.34403809 9.95581055 85.4909668 C9.46753553 60.46126456 8.17739178 35.94584935 2.0859375 11.546875 C1.1300192 7.70718975 0.47759354 3.9268802 0 0 Z " fill="#C471E8" transform="translate(475,180)"/>
<path d="M0 0 C0.66 0 1.32 0 2 0 C1.88930176 0.58265625 1.77860352 1.1653125 1.66455078 1.765625 C-0.61091996 13.81307048 -2.6725408 25.80833526 -4 38 C-6.8925571 33.96564405 -5.92653741 29.83413365 -5.375 25.1875 C-5.28234863 24.35178467 -5.18969727 23.51606934 -5.09423828 22.6550293 C-4.14544049 14.8670424 -2.30698801 7.49211155 0 0 Z " fill="#B67AE9" transform="translate(20,192)"/>
<path d="M0 0 C2.625 0.375 2.625 0.375 5 1 C5.625 3.375 5.625 3.375 6 6 C5.34 6.66 4.68 7.32 4 8 C1.375 7.625 1.375 7.625 -1 7 C-1.625 4.625 -1.625 4.625 -2 2 C-1.34 1.34 -0.68 0.68 0 0 Z " fill="#03E1DA" transform="translate(436,320)"/>
<path d="M0 0 C2.625 0.375 2.625 0.375 5 1 C5.625 3.375 5.625 3.375 6 6 C5.34 6.66 4.68 7.32 4 8 C1.375 7.625 1.375 7.625 -1 7 C-1.625 4.625 -1.625 4.625 -2 2 C-1.34 1.34 -0.68 0.68 0 0 Z " fill="#04DED7" transform="translate(449,265)"/>
<path d="M0 0 C2.625 0.375 2.625 0.375 5 1 C5.625 3.375 5.625 3.375 6 6 C5.34 6.66 4.68 7.32 4 8 C1.375 7.625 1.375 7.625 -1 7 C-1.625 4.625 -1.625 4.625 -2 2 C-1.34 1.34 -0.68 0.68 0 0 Z " fill="#03E3DC" transform="translate(187,53)"/>
<path d="M0 0 C0.598125 0.226875 1.19625 0.45375 1.8125 0.6875 C2.4375 3.0625 2.4375 3.0625 2.8125 5.6875 C2.1525 6.3475 1.4925 7.0075 0.8125 7.6875 C-1.8125 7.3125 -1.8125 7.3125 -4.1875 6.6875 C-4.875 4.875 -4.875 4.875 -5.1875 2.6875 C-3.58493056 0.24147296 -2.95482043 -0.4221172 0 0 Z " fill="#03E7E0" transform="translate(75.1875,146.3125)"/>
<path d="M0 0 C2.8992226 0.46761655 3.86675182 0.86675182 6 3 C5.625 5.125 5.625 5.125 5 7 C2.625 7.625 2.625 7.625 0 8 C-0.66 7.34 -1.32 6.68 -2 6 C-1.44444444 1.44444444 -1.44444444 1.44444444 0 0 Z " fill="#03E7E0" transform="translate(136,414)"/>
<path d="M0 0 C2.91346593 1.31307249 4.9450979 2.71181588 7.1640625 5.00390625 C8.01097656 5.86725586 8.01097656 5.86725586 8.875 6.74804688 C9.4525 7.34681641 10.03 7.94558594 10.625 8.5625 C11.78160151 9.75349384 12.94035778 10.94240005 14.1015625 12.12890625 C14.61025879 12.65556885 15.11895508 13.18223145 15.64306641 13.72485352 C16.99400105 15.1164217 16.99400105 15.1164217 19 16 C19 16.66 19 17.32 19 18 C18.01 18 17.02 18 16 18 C16 17.34 16 16.68 16 16 C14.68 15.34 13.36 14.68 12 14 C12 13.34 12 12.68 12 12 C11.13375 11.62875 11.13375 11.62875 10.25 11.25 C7.67060021 9.81700012 5.93878408 8.21575324 4 6 C4 5.34 4 4.68 4 4 C3.34 4 2.68 4 2 4 C1.34 2.68 0.68 1.36 0 0 Z " fill="#D066EC" transform="translate(72,406)"/>
<path d="M0 0 C0.598125 0.226875 1.19625 0.45375 1.8125 0.6875 C2.4375 3.0625 2.4375 3.0625 2.8125 5.6875 C2.1525 6.3475 1.4925 7.0075 0.8125 7.6875 C-1.8125 7.3125 -1.8125 7.3125 -4.1875 6.6875 C-4.875 4.875 -4.875 4.875 -5.1875 2.6875 C-3.58493056 0.24147296 -2.95482043 -0.4221172 0 0 Z " fill="#02E8E1" transform="translate(385.1875,397.3125)"/>
<path d="M0 0 C-2 3 -2 3 -4.19921875 3.68359375 C-7.42780263 4.04832917 -10.56366043 4.09531656 -13.8125 4.0625 C-14.97394531 4.05347656 -16.13539063 4.04445313 -17.33203125 4.03515625 C-18.21246094 4.02355469 -19.09289062 4.01195312 -20 4 C-20 3.67 -20 3.34 -20 3 C-16.12577888 1.84597669 -12.24063026 0.76851846 -8.3125 -0.1875 C-7.22388672 -0.45626953 -7.22388672 -0.45626953 -6.11328125 -0.73046875 C-3.79550855 -1.02608116 -2.21098966 -0.70372357 0 0 Z " fill="#DDDDDD" transform="translate(231,335)"/>
<path d="M0 0 C2.625 0.9375 2.625 0.9375 5 2 C4.67 3.65 4.34 5.3 4 7 C1.625 7.625 1.625 7.625 -1 8 C-1.66 7.34 -2.32 6.68 -3 6 C-2.75 3.4375 -2.75 3.4375 -2 1 C-1.34 0.67 -0.68 0.34 0 0 Z " fill="#03E7E0" transform="translate(443,302)"/>
<path d="M0 0 C0.598125 0.226875 1.19625 0.45375 1.8125 0.6875 C2.4375 3.0625 2.4375 3.0625 2.8125 5.6875 C2.1525 6.3475 1.4925 7.0075 0.8125 7.6875 C-1.8125 7.3125 -1.8125 7.3125 -4.1875 6.6875 C-4.875 4.875 -4.875 4.875 -5.1875 2.6875 C-3.58493056 0.24147296 -2.95482043 -0.4221172 0 0 Z " fill="#02EAE3" transform="translate(85.1875,130.3125)"/>
<path d="M0 0 C2.625 0.375 2.625 0.375 5 1 C5.38218767 2.65614657 5.71395102 4.32457024 6 6 C5 7 5 7 1.9375 7.0625 C0.968125 7.041875 -0.00125 7.02125 -1 7 C-1.625 4.625 -1.625 4.625 -2 2 C-1.34 1.34 -0.68 0.68 0 0 Z " fill="#03E7E0" transform="translate(243,448)"/>
<path d="M0 0 C1.4540625 0.0309375 1.4540625 0.0309375 2.9375 0.0625 C3.5625 2.4375 3.5625 2.4375 3.9375 5.0625 C1.9375 7.0625 1.9375 7.0625 -0.6875 7.1875 C-1.47125 7.14625 -2.255 7.105 -3.0625 7.0625 C-3.44383299 5.0710944 -3.77575582 3.06970923 -4.0625 1.0625 C-3.0625 0.0625 -3.0625 0.0625 0 0 Z " fill="#02ECE4" transform="translate(283.0625,445.9375)"/>
<path d="M0 0 C2.625 0.375 2.625 0.375 5 1 C5.38218767 2.65614657 5.71395102 4.32457024 6 6 C5 7 5 7 1.9375 7.0625 C0.968125 7.041875 -0.00125 7.02125 -1 7 C-1.625 4.625 -1.625 4.625 -2 2 C-1.34 1.34 -0.68 0.68 0 0 Z " fill="#02EDE5" transform="translate(450,246)"/>
<path d="M0 0 C2.625 0.375 2.625 0.375 5 1 C5.38218767 2.65614657 5.71395102 4.32457024 6 6 C5 7 5 7 1.9375 7.0625 C0.968125 7.041875 -0.00125 7.02125 -1 7 C-1.625 4.625 -1.625 4.625 -2 2 C-1.34 1.34 -0.68 0.68 0 0 Z " fill="#02E9E2" transform="translate(243,44)"/>
<path d="M0 0 C0.78375 0.04125 1.5675 0.0825 2.375 0.125 C3 2.5 3 2.5 3.375 5.125 C1.375 7.125 1.375 7.125 -1.25 7.25 C-2.03375 7.20875 -2.8175 7.1675 -3.625 7.125 C-4.25 4.75 -4.25 4.75 -4.625 2.125 C-2.625 0.125 -2.625 0.125 0 0 Z " fill="#02EFE7" transform="translate(138.625,77.875)"/>
<path d="M0 0 C1.4540625 0.0309375 1.4540625 0.0309375 2.9375 0.0625 C3.5625 2.4375 3.5625 2.4375 3.9375 5.0625 C3.2775 5.7225 2.6175 6.3825 1.9375 7.0625 C-0.6875 6.6875 -0.6875 6.6875 -3.0625 6.0625 C-3.44468767 4.40635343 -3.77645102 2.73792976 -4.0625 1.0625 C-3.0625 0.0625 -3.0625 0.0625 0 0 Z " fill="#01F0E8" transform="translate(264.0625,44.9375)"/>
<path d="M0 0 C1.67542976 0.28604898 3.34385343 0.61781233 5 1 C5.38218767 2.65614657 5.71395102 4.32457024 6 6 C5 7 5 7 2.5625 7.1875 C0 7 0 7 -2 5 C-1.46428571 1.46428571 -1.46428571 1.46428571 0 0 Z " fill="#01F0E9" transform="translate(224,447)"/>
<path d="M0 0 C1.67542976 0.28604898 3.34385343 0.61781233 5 1 C5.38218767 2.65614657 5.71395102 4.32457024 6 6 C5 7 5 7 2.5625 7.1875 C0 7 0 7 -2 5 C-1.46428571 1.46428571 -1.46428571 1.46428571 0 0 Z " fill="#02EFE7" transform="translate(187,439)"/>
<path d="M0 0 C1.98 0 3.96 0 6 0 C6.625 2.375 6.625 2.375 7 5 C6.34 5.66 5.68 6.32 5 7 C2.375 6.625 2.375 6.625 0 6 C-1.125 2.25 -1.125 2.25 0 0 Z " fill="#01F0E8" transform="translate(334,429)"/>
<path d="M0 0 C1.67542976 0.28604898 3.34385343 0.61781233 5 1 C5.625 3.375 5.625 3.375 6 6 C5.34 6.66 4.68 7.32 4 8 C0.46428571 7.46428571 0.46428571 7.46428571 -1 6 C-1.125 3.5 -1.125 3.5 -1 1 C-0.67 0.67 -0.34 0.34 0 0 Z " fill="#02E9E2" transform="translate(152,424)"/>
<path d="M0 0 C0.625 2.375 0.625 2.375 1 5 C0.34 5.66 -0.32 6.32 -1 7 C-3.625 6.625 -3.625 6.625 -6 6 C-6 4.02 -6 2.04 -6 0 C-3.50907189 -1.24546405 -2.58919267 -0.7767578 0 0 Z " fill="#02EFE8" transform="translate(372,410)"/>
<path d="M0 0 C3.69230769 0.69230769 3.69230769 0.69230769 5 2 C5.04063832 3.66617115 5.042721 5.33388095 5 7 C2.625 7.625 2.625 7.625 0 8 C-0.66 7.34 -1.32 6.68 -2 6 C-1.44444444 1.44444444 -1.44444444 1.44444444 0 0 Z " fill="#02EEE6" transform="translate(121,403)"/>
<path d="M0 0 C1.67542976 0.28604898 3.34385343 0.61781233 5 1 C5.625 3.375 5.625 3.375 6 6 C5.34 6.66 4.68 7.32 4 8 C0.46428571 7.46428571 0.46428571 7.46428571 -1 6 C-1.125 3.5 -1.125 3.5 -1 1 C-0.67 0.67 -0.34 0.34 0 0 Z " fill="#02EDE5" transform="translate(51,293)"/>
<path d="M0 0 C1.67542976 0.28604898 3.34385343 0.61781233 5 1 C5.625 3.375 5.625 3.375 6 6 C5.34 6.66 4.68 7.32 4 8 C0.46428571 7.46428571 0.46428571 7.46428571 -1 6 C-1.125 3.5 -1.125 3.5 -1 1 C-0.67 0.67 -0.34 0.34 0 0 Z " fill="#01F1E9" transform="translate(446,284)"/>
<path d="M0 0 C3.69230769 0.69230769 3.69230769 0.69230769 5 2 C5.04063832 3.66617115 5.042721 5.33388095 5 7 C2.625 7.625 2.625 7.625 0 8 C-0.66 7.34 -1.32 6.68 -2 6 C-1.44444444 1.44444444 -1.44444444 1.44444444 0 0 Z " fill="#01F3EB" transform="translate(48,274)"/>
<path d="M0 0 C1.67542976 0.28604898 3.34385343 0.61781233 5 1 C5.625 3.375 5.625 3.375 6 6 C5.34 6.66 4.68 7.32 4 8 C0.46428571 7.46428571 0.46428571 7.46428571 -1 6 C-1.125 3.5 -1.125 3.5 -1 1 C-0.67 0.67 -0.34 0.34 0 0 Z " fill="#02EBE4" transform="translate(51,199)"/>
<path d="M0 0 C2.625 0.375 2.625 0.375 5 1 C5.125 3.375 5.125 3.375 5 6 C4.34 6.66 3.68 7.32 3 8 C0.875 7.625 0.875 7.625 -1 7 C-1.625 4.625 -1.625 4.625 -2 2 C-1.34 1.34 -0.68 0.68 0 0 Z " fill="#01F1EA" transform="translate(57,181)"/>
<path d="M0 0 C2.125 0.375 2.125 0.375 4 1 C4.625 3.375 4.625 3.375 5 6 C4.34 6.66 3.68 7.32 3 8 C0.375 7.625 0.375 7.625 -2 7 C-2.125 4.625 -2.125 4.625 -2 2 C-1.34 1.34 -0.68 0.68 0 0 Z " fill="#01F1E9" transform="translate(64,163)"/>
<path d="M0 0 C1.67542976 0.28604898 3.34385343 0.61781233 5 1 C5 2.98 5 4.96 5 7 C2.625 7.625 2.625 7.625 0 8 C-0.66 7.34 -1.32 6.68 -2 6 C-1.44444444 1.44444444 -1.44444444 1.44444444 0 0 Z " fill="#02ECE5" transform="translate(419,138)"/>
<path d="M0 0 C3.69230769 0.69230769 3.69230769 0.69230769 5 2 C5.04063832 3.66617115 5.042721 5.33388095 5 7 C2.625 7.625 2.625 7.625 0 8 C-0.66 7.34 -1.32 6.68 -2 6 C-1.44444444 1.44444444 -1.44444444 1.44444444 0 0 Z " fill="#01F1EA" transform="translate(396,108)"/>
<path d="M0 0 C1.67542976 0.28604898 3.34385343 0.61781233 5 1 C5.38218767 2.65614657 5.71395102 4.32457024 6 6 C5 7 5 7 2.5625 7.1875 C0 7 0 7 -2 5 C-1.46428571 1.46428571 -1.46428571 1.46428571 0 0 Z " fill="#02EFE7" transform="translate(382,95)"/>
<path d="M0 0 C1.67542976 0.28604898 3.34385343 0.61781233 5 1 C5.625 3.375 5.625 3.375 6 6 C5.34 6.66 4.68 7.32 4 8 C0.46428571 7.46428571 0.46428571 7.46428571 -1 6 C-1.125 3.5 -1.125 3.5 -1 1 C-0.67 0.67 -0.34 0.34 0 0 Z " fill="#02EFE8" transform="translate(367,83)"/>
<path d="M0 0 C2.375 -0.125 2.375 -0.125 5 0 C5.66 0.66 6.32 1.32 7 2 C6.625 4.125 6.625 4.125 6 6 C3.625 6.625 3.625 6.625 1 7 C0.34 6.34 -0.32 5.68 -1 5 C-0.625 2.375 -0.625 2.375 0 0 Z " fill="#01F1EA" transform="translate(334,64)"/>
<path d="M0 0 C3.53571429 0.53571429 3.53571429 0.53571429 5 2 C5.04063832 3.66617115 5.042721 5.33388095 5 7 C0.25 8.125 0.25 8.125 -2 7 C-2.125 4.625 -2.125 4.625 -2 2 C-1.34 1.34 -0.68 0.68 0 0 Z " fill="#02EEE7" transform="translate(318,56)"/>
<path d="M0 0 C1.67542976 0.28604898 3.34385343 0.61781233 5 1 C5.38218767 2.65614657 5.71395102 4.32457024 6 6 C5 7 5 7 2.5625 7.1875 C0 7 0 7 -2 5 C-1.46428571 1.46428571 -1.46428571 1.46428571 0 0 Z " fill="#02EEE7" transform="translate(299,51)"/>
<path d="M0 0 C0.78375 0.04125 1.5675 0.0825 2.375 0.125 C3 2.5 3 2.5 3.375 5.125 C2.715 5.785 2.055 6.445 1.375 7.125 C-1.25 6.75 -1.25 6.75 -3.625 6.125 C-4.25 4.25 -4.25 4.25 -4.625 2.125 C-2.625 0.125 -2.625 0.125 0 0 Z " fill="#01F1E9" transform="translate(226.625,45.875)"/>
<path d="M0 0 C2.5 0.125 2.5 0.125 3.5 1.125 C3.625 3.625 3.625 3.625 3.5 6.125 C2.5 7.125 2.5 7.125 0 7.25 C-2.5 7.125 -2.5 7.125 -3.5 6.125 C-3.625 3.625 -3.625 3.625 -3.5 1.125 C-2.5 0.125 -2.5 0.125 0 0 Z " fill="#01F3EB" transform="translate(207.5,443.875)"/>
<path d="M0 0 C2.625 0.375 2.625 0.375 5 1 C5.125 3.375 5.125 3.375 5 6 C4.34 6.66 3.68 7.32 3 8 C0.875 7.625 0.875 7.625 -1 7 C-1.625 4.625 -1.625 4.625 -2 2 C-1.34 1.34 -0.68 0.68 0 0 Z " fill="#01F1E9" transform="translate(419,354)"/>
<path d="M0 0 C1.67542976 0.28604898 3.34385343 0.61781233 5 1 C6.125 4.75 6.125 4.75 5 7 C2.625 7.125 2.625 7.125 0 7 C-0.66 6.34 -1.32 5.68 -2 5 C-1.46428571 1.46428571 -1.46428571 1.46428571 0 0 Z " fill="#01F1E9" transform="translate(72,346)"/>
<path d="M0 0 C1.67542976 0.28604898 3.34385343 0.61781233 5 1 C6.125 4.75 6.125 4.75 5 7 C2.625 7.125 2.625 7.125 0 7 C-0.66 6.34 -1.32 5.68 -2 5 C-1.46428571 1.46428571 -1.46428571 1.46428571 0 0 Z " fill="#01F0E9" transform="translate(442,190)"/>
<path d="M0 0 C0.598125 0.226875 1.19625 0.45375 1.8125 0.6875 C2.19468767 2.34364657 2.52645102 4.01207024 2.8125 5.6875 C1.8125 6.6875 1.8125 6.6875 -1.25 6.75 C-2.219375 6.729375 -3.18875 6.70875 -4.1875 6.6875 C-4.875 4.875 -4.875 4.875 -5.1875 2.6875 C-3.58493056 0.24147296 -2.95482043 -0.4221172 0 0 Z " fill="#02EEE6" transform="translate(155.1875,68.3125)"/>
<path d="M0 0 C2.5 0.125 2.5 0.125 3.5 1.125 C3.625 3.625 3.625 3.625 3.5 6.125 C2.5 7.125 2.5 7.125 0 7.25 C-2.5 7.125 -2.5 7.125 -3.5 6.125 C-3.625 3.625 -3.625 3.625 -3.5 1.125 C-2.5 0.125 -2.5 0.125 0 0 Z " fill="#01F4EC" transform="translate(171.5,59.875)"/>
<path d="M0 0 C2.625 0.375 2.625 0.375 5 1 C5.625 2.875 5.625 2.875 6 5 C5.34 5.66 4.68 6.32 4 7 C1.375 6.625 1.375 6.625 -1 6 C-1.625 4.125 -1.625 4.125 -2 2 C-1.34 1.34 -0.68 0.68 0 0 Z " fill="#01F5ED" transform="translate(262,448)"/>
<path d="M0 0 C2.00720923 0.28674418 4.0085944 0.61866701 6 1 C6.042721 2.66611905 6.04063832 4.33382885 6 6 C5 7 5 7 2.5 7.125 C0 7 0 7 -1 6 C-1.125 3.5 -1.125 3.5 -1 1 C-0.67 0.67 -0.34 0.34 0 0 Z " fill="#01F2EA" transform="translate(317,436)"/>
<path d="M0 0 C1.2065625 0.0309375 1.2065625 0.0309375 2.4375 0.0625 C2.81883299 2.0539056 3.15075582 4.05529077 3.4375 6.0625 C2.4375 7.0625 2.4375 7.0625 -0.0625 7.1875 C-2.5625 7.0625 -2.5625 7.0625 -3.5625 6.0625 C-3.6875 3.5625 -3.6875 3.5625 -3.5625 1.0625 C-2.5625 0.0625 -2.5625 0.0625 0 0 Z " fill="#01F4ED" transform="translate(65.5625,328.9375)"/>
<path d="M0 0 C2.125 0.375 2.125 0.375 4 1 C4.625 3.375 4.625 3.375 5 6 C4.34 6.66 3.68 7.32 3 8 C0.875 7.625 0.875 7.625 -1 7 C-1.625 4.625 -1.625 4.625 -2 2 C-1.34 1.34 -0.68 0.68 0 0 Z " fill="#00F9F1" transform="translate(57,311)"/>
<path d="M0 0 C1.67542976 0.28604898 3.34385343 0.61781233 5 1 C5.6875 2.8125 5.6875 2.8125 6 5 C4.5625 6.75 4.5625 6.75 3 8 C1.68 7.34 0.36 6.68 -1 6 C-1.042721 4.33388095 -1.04063832 2.66617115 -1 1 C-0.67 0.67 -0.34 0.34 0 0 Z " fill="#01F0E9" transform="translate(449,227)"/>
<path d="M0 0 C2.125 0.375 2.125 0.375 4 1 C4.625 3.375 4.625 3.375 5 6 C4.34 6.66 3.68 7.32 3 8 C0.875 7.625 0.875 7.625 -1 7 C-1.625 4.625 -1.625 4.625 -2 2 C-1.34 1.34 -0.68 0.68 0 0 Z " fill="#01F5EE" transform="translate(447,208)"/>
<path d="M0 0 C1.2065625 0.0309375 1.2065625 0.0309375 2.4375 0.0625 C3.0975 1.3825 3.7575 2.7025 4.4375 4.0625 C3.1875 5.625 3.1875 5.625 1.4375 7.0625 C-0.75 6.75 -0.75 6.75 -2.5625 6.0625 C-2.94468767 4.40635343 -3.27645102 2.73792976 -3.5625 1.0625 C-2.5625 0.0625 -2.5625 0.0625 0 0 Z " fill="#01F2EA" transform="translate(108.5625,101.9375)"/>
<path d="M0 0 C1.2065625 0.0309375 1.2065625 0.0309375 2.4375 0.0625 C3.0625 2.4375 3.0625 2.4375 3.4375 5.0625 C2.7775 5.7225 2.1175 6.3825 1.4375 7.0625 C-1.1875 6.6875 -1.1875 6.6875 -3.5625 6.0625 C-3.605221 4.39638095 -3.60313832 2.72867115 -3.5625 1.0625 C-2.5625 0.0625 -2.5625 0.0625 0 0 Z " fill="#00F8F0" transform="translate(301.5625,441.9375)"/>
<path d="M0 0 C2.5 0.125 2.5 0.125 3.5 1.125 C3.54063832 2.79117115 3.542721 4.45888095 3.5 6.125 C-1.25 7.25 -1.25 7.25 -3.5 6.125 C-3.542721 4.45888095 -3.54063832 2.79117115 -3.5 1.125 C-2.5 0.125 -2.5 0.125 0 0 Z " fill="#01F6EF" transform="translate(171.5,432.875)"/>
<path d="M0 0 C1.2065625 0.0309375 1.2065625 0.0309375 2.4375 0.0625 C3.0625 2.4375 3.0625 2.4375 3.4375 5.0625 C2.7775 5.7225 2.1175 6.3825 1.4375 7.0625 C-1.1875 6.6875 -1.1875 6.6875 -3.5625 6.0625 C-3.605221 4.39638095 -3.60313832 2.72867115 -3.5625 1.0625 C-2.5625 0.0625 -2.5625 0.0625 0 0 Z " fill="#01F6EE" transform="translate(353.5625,419.9375)"/>
<path d="M0 0 C-1.61010527 4.07376031 -4.53822271 6.76507069 -7.625 9.75 C-8.140625 10.25660156 -8.65625 10.76320313 -9.1875 11.28515625 C-10.45383339 12.52803902 -11.7263144 13.76465276 -13 15 C-13.99 14.67 -14.98 14.34 -16 14 C-14.71034824 12.62437146 -13.37310707 11.29233607 -12 10 C-11.34 10 -10.68 10 -10 10 C-9.79375 9.46375 -9.5875 8.9275 -9.375 8.375 C-7.43786251 5.02903524 -4.15282732 0 0 0 Z " fill="#AB82E8" transform="translate(427,406)"/>
<path d="M0 0 C1.66611905 -0.042721 3.33382885 -0.04063832 5 0 C6 1 6 1 6.0625 3.5625 C6.041875 4.366875 6.02125 5.17125 6 6 C3.625 6.625 3.625 6.625 1 7 C0.34 6.34 -0.32 5.68 -1 5 C-0.625 2.375 -0.625 2.375 0 0 Z " fill="#00F8F0" transform="translate(106,391)"/>
<path d="M0 0 C2.625 0.375 2.625 0.375 5 1 C5.042721 2.66611905 5.04063832 4.33382885 5 6 C4 7 4 7 1.4375 7.0625 C0.2309375 7.0315625 0.2309375 7.0315625 -1 7 C-1.625 4.625 -1.625 4.625 -2 2 C-1.34 1.34 -0.68 0.68 0 0 Z " fill="#01F7EF" transform="translate(396,384)"/>
<path d="M0 0 C1.66611905 -0.042721 3.33382885 -0.04063832 5 0 C6 1 6 1 6.0625 3.5625 C6.041875 4.366875 6.02125 5.17125 6 6 C3.625 6.625 3.625 6.625 1 7 C0.34 6.34 -0.32 5.68 -1 5 C-0.625 2.375 -0.625 2.375 0 0 Z " fill="#01F6EE" transform="translate(93,377)"/>
<path d="M0 0 C1.67542976 0.28604898 3.34385343 0.61781233 5 1 C5.38218767 2.65614657 5.71395102 4.32457024 6 6 C5 7 5 7 2.5 7.125 C0 7 0 7 -1 6 C-1.125 3.5 -1.125 3.5 -1 1 C-0.67 0.67 -0.34 0.34 0 0 Z " fill="#01F6EE" transform="translate(82,362)"/>
<path d="M0 0 C1.66611905 -0.042721 3.33382885 -0.04063832 5 0 C6 1 6 1 6.0625 3.5625 C6.041875 4.366875 6.02125 5.17125 6 6 C3.625 6.625 3.625 6.625 1 7 C0.34 6.34 -0.32 5.68 -1 5 C-0.625 2.375 -0.625 2.375 0 0 Z " fill="#01F3EB" transform="translate(45,237)"/>
<path d="M0 0 C2.625 0.375 2.625 0.375 5 1 C5.042721 2.66611905 5.04063832 4.33382885 5 6 C4 7 4 7 1.4375 7.0625 C0.2309375 7.0315625 0.2309375 7.0315625 -1 7 C-1.625 4.625 -1.625 4.625 -2 2 C-1.34 1.34 -0.68 0.68 0 0 Z " fill="#01F5ED" transform="translate(48,218)"/>
<path d="M0 0 C1.66611905 -0.042721 3.33382885 -0.04063832 5 0 C6 1 6 1 6.0625 3.5625 C6.041875 4.366875 6.02125 5.17125 6 6 C3.625 6.625 3.625 6.625 1 7 C0.34 6.34 -0.32 5.68 -1 5 C-0.625 2.375 -0.625 2.375 0 0 Z " fill="#01F5ED" transform="translate(407,123)"/>
<path d="M0 0 C1.66611905 -0.042721 3.33382885 -0.04063832 5 0 C6 1 6 1 6.0625 3.5625 C6.041875 4.366875 6.02125 5.17125 6 6 C3.625 6.625 3.625 6.625 1 7 C0.34 6.34 -0.32 5.68 -1 5 C-0.625 2.375 -0.625 2.375 0 0 Z " fill="#01F5EE" transform="translate(93,116)"/>
<path d="M0 0 C2.625 0.375 2.625 0.375 5 1 C5.042721 2.66611905 5.04063832 4.33382885 5 6 C4 7 4 7 1.4375 7.0625 C0.2309375 7.0315625 0.2309375 7.0315625 -1 7 C-1.625 4.625 -1.625 4.625 -2 2 C-1.34 1.34 -0.68 0.68 0 0 Z " fill="#01F5EE" transform="translate(121,89)"/>
<path d="M0 0 C1.66611905 -0.042721 3.33382885 -0.04063832 5 0 C6 1 6 1 6.0625 3.5625 C6.041875 4.366875 6.02125 5.17125 6 6 C3.625 6.625 3.625 6.625 1 7 C0.34 6.34 -0.32 5.68 -1 5 C-0.625 2.375 -0.625 2.375 0 0 Z " fill="#00F8F0" transform="translate(351,73)"/>
<path d="M0 0 C1.66611905 -0.042721 3.33382885 -0.04063832 5 0 C6 1 6 1 6.0625 3.5625 C6.041875 4.366875 6.02125 5.17125 6 6 C3.625 6.625 3.625 6.625 1 7 C0.34 6.34 -0.32 5.68 -1 5 C-0.625 2.375 -0.625 2.375 0 0 Z " fill="#00F7EF" transform="translate(280,47)"/>
<path d="M0 0 C2.625 0.375 2.625 0.375 5 1 C5.042721 2.66611905 5.04063832 4.33382885 5 6 C4 7 4 7 1.4375 7.0625 C0.2309375 7.0315625 0.2309375 7.0315625 -1 7 C-1.625 4.625 -1.625 4.625 -2 2 C-1.34 1.34 -0.68 0.68 0 0 Z " fill="#01F6EF" transform="translate(436,172)"/>
<path d="M0 0 C1.2065625 0.0309375 1.2065625 0.0309375 2.4375 0.0625 C3.0625 2.4375 3.0625 2.4375 3.4375 5.0625 C2.7775 5.7225 2.1175 6.3825 1.4375 7.0625 C-1.1875 6.6875 -1.1875 6.6875 -3.5625 6.0625 C-3.605221 4.39638095 -3.60313832 2.72867115 -3.5625 1.0625 C-2.5625 0.0625 -2.5625 0.0625 0 0 Z " fill="#00F7F0" transform="translate(207.5625,48.9375)"/>
<path d="M0 0 C1.67542976 0.28604898 3.34385343 0.61781233 5 1 C5 2.65 5 4.3 5 6 C2.625 6.625 2.625 6.625 0 7 C-0.66 6.34 -1.32 5.68 -2 5 C-1.46428571 1.46428571 -1.46428571 1.46428571 0 0 Z " fill="#00F8F0" transform="translate(408,370)"/>
<path d="M0 0 C1.67542976 0.28604898 3.34385343 0.61781233 5 1 C5.625 2.875 5.625 2.875 6 5 C5.34 5.66 4.68 6.32 4 7 C1.375 6.625 1.375 6.625 -1 6 C-1.042721 4.33388095 -1.04063832 2.66617115 -1 1 C-0.67 0.67 -0.34 0.34 0 0 Z " fill="#00F8F1" transform="translate(428,338)"/>
<path d="M0 0 C1.67542976 0.28604898 3.34385343 0.61781233 5 1 C5.625 2.875 5.625 2.875 6 5 C5.34 5.66 4.68 6.32 4 7 C1.375 6.625 1.375 6.625 -1 6 C-1.042721 4.33388095 -1.04063832 2.66617115 -1 1 C-0.67 0.67 -0.34 0.34 0 0 Z " fill="#01F7EF" transform="translate(46,256)"/>
<path d="M0 0 C1.67542976 0.28604898 3.34385343 0.61781233 5 1 C5.625 2.875 5.625 2.875 6 5 C5.34 5.66 4.68 6.32 4 7 C1.375 6.625 1.375 6.625 -1 6 C-1.042721 4.33388095 -1.04063832 2.66617115 -1 1 C-0.67 0.67 -0.34 0.34 0 0 Z " fill="#00F8F0" transform="translate(428,155)"/>
<path d="M0 0 C6.83230654 3.02795403 12.68487728 8.996351 17 15 C16.67 15.66 16.34 16.32 16 17 C15.58637207 16.58113525 15.17274414 16.16227051 14.74658203 15.73071289 C12.87533169 13.83870591 11.00022415 11.95056815 9.125 10.0625 C8.47402344 9.40314453 7.82304687 8.74378906 7.15234375 8.06445312 C6.21455078 7.12182617 6.21455078 7.12182617 5.2578125 6.16015625 C4.6817627 5.57886963 4.10571289 4.99758301 3.51220703 4.39868164 C2.03347525 2.90048064 2.03347525 2.90048064 0 2 C0 1.34 0 0.68 0 0 Z " fill="#CE64E9" transform="translate(407,74)"/>
<path d="M0 0 C5.46864457 1.01591421 10.76390013 2.07091057 16 4 C15.67 4.66 15.34 5.32 15 6 C9.33895411 5.50341703 5.12325529 4.45489316 0 2 C0 1.34 0 0.68 0 0 Z " fill="#C86FEB" transform="translate(306,19)"/>
<path d="M0 0 C5.56890517 0.47986031 10.67067568 1.29915181 16 3 C16 3.66 16 4.32 16 5 C10.43109483 4.52013969 5.32932432 3.70084819 0 2 C0 1.34 0 0.68 0 0 Z " fill="#D069EB" transform="translate(182,476)"/>
<path d="M0 0 C0.99 0.33 1.98 0.66 3 1 C1.88407791 3.00507927 0.75701288 5.00396096 -0.375 7 C-1.31472656 8.670625 -1.31472656 8.670625 -2.2734375 10.375 C-2.84320313 11.24125 -3.41296875 12.1075 -4 13 C-4.66 13 -5.32 13 -6 13 C-4.58707905 8.1725201 -2.57025846 4.2837641 0 0 Z " fill="#C564EE" transform="translate(457,360)"/>
<path d="M0 0 C0.73828125 1.640625 0.73828125 1.640625 1 4 C-0.58203125 6.796875 -0.58203125 6.796875 -2.8125 9.75 C-3.90498047 11.22726563 -3.90498047 11.22726563 -5.01953125 12.734375 C-5.67308594 13.48203125 -6.32664063 14.2296875 -7 15 C-7.66 15 -8.32 15 -9 15 C-7.38325319 11.57053707 -5.42402323 8.43736948 -3.375 5.25 C-2.74335937 4.26515625 -2.11171875 3.2803125 -1.4609375 2.265625 C-0.97882812 1.51796875 -0.49671875 0.7703125 0 0 Z " fill="#CC68EC" transform="translate(55,114)"/>
<path d="M0 0 C2.80178062 3.2334275 3.74124175 6.10448769 4.6875 10.25 C4.93886719 11.32765625 5.19023437 12.4053125 5.44921875 13.515625 C5.72185547 14.74539062 5.72185547 14.74539062 6 16 C5.01 15.67 4.02 15.34 3 15 C2.05078125 12.890625 2.05078125 12.890625 1.3125 10.25 C1.06113281 9.38890625 0.80976563 8.5278125 0.55078125 7.640625 C0.00246572 5.01182147 -0.10108994 2.67647662 0 0 Z " fill="#C668EA" transform="translate(475,180)"/>
<path d="M0 0 C0.99 0.33 1.98 0.66 3 1 C0.69 5.29 -1.62 9.58 -4 14 C-4.33 14 -4.66 14 -5 14 C-5.28883414 9.93465943 -4.57875609 7.66941645 -2.5 4.1875 C-2.0359375 3.39730469 -1.571875 2.60710937 -1.09375 1.79296875 C-0.55234375 0.90544922 -0.55234375 0.90544922 0 0 Z " fill="#BD78E8" transform="translate(45,129)"/>
<path d="M0 0 C-1.26190138 3.78570414 -2.54855815 4.21831571 -5.9375 6.1875 C-6.83339844 6.71730469 -7.72929688 7.24710938 -8.65234375 7.79296875 C-11 9 -11 9 -13 9 C-13 8.34 -13 7.68 -13 7 C-10.6640625 5.2734375 -10.6640625 5.2734375 -7.625 3.375 C-6.62726563 2.74335937 -5.62953125 2.11171875 -4.6015625 1.4609375 C-2 0 -2 0 0 0 Z " fill="#C86AEB" transform="translate(131,45)"/>
<path d="M0 0 C4.29 0.66 8.58 1.32 13 2 C12.34 2.66 11.68 3.32 11 4 C8.3984375 3.9765625 8.3984375 3.9765625 5.375 3.625 C4.37210938 3.51414062 3.36921875 3.40328125 2.3359375 3.2890625 C1.17964844 3.14597656 1.17964844 3.14597656 0 3 C0 2.01 0 1.02 0 0 Z " fill="#BB74E9" transform="translate(198,479)"/>
<path d="M0 0 C0.66 0.33 1.32 0.66 2 1 C1 4 1 4 -1.9375 5.6875 C-5 7 -5 7 -7 7 C-6.875 5.1875 -6.875 5.1875 -6 3 C-3.0625 1.1875 -3.0625 1.1875 0 0 Z " fill="#E6E6E6" transform="translate(237,330)"/>
<path d="M0 0 C-1 2 -1 2 -4.3125 3.125 C-8 4 -8 4 -12 4 C-11.67 3.01 -11.34 2.02 -11 1 C-7.27569643 0.30710631 -3.78916254 -0.11144596 0 0 Z " fill="#C26CEB" transform="translate(314,477)"/>
<path d="M0 0 C3.87302138 1.14430177 7.00263439 2.23320098 10 5 C10 5.66 10 6.32 10 7 C6.12697862 5.85569823 2.99736561 4.76679902 0 2 C0 1.34 0 0.68 0 0 Z " fill="#CF60EE" transform="translate(367,44)"/>
<path d="M0 0 C0.66 0 1.32 0 2 0 C2.53154742 1.60064843 3.04988353 3.20568874 3.5625 4.8125 C3.85253906 5.70582031 4.14257812 6.59914063 4.44140625 7.51953125 C5 10 5 10 4 13 C3.32694982 11.39850114 2.66177773 9.79368971 2 8.1875 C1.62875 7.29417969 1.2575 6.40085937 0.875 5.48046875 C0 3 0 3 0 0 Z " fill="#CF6DEB" transform="translate(20,308)"/>
<path d="M0 0 C0 0.33 0 0.66 0 1 C-9.41002278 3.29612756 -9.41002278 3.29612756 -14 3 C-13.1028125 2.566875 -13.1028125 2.566875 -12.1875 2.125 C-7.18345038 -0.44851123 -5.74472115 -1.08390965 0 0 Z " fill="#B37CE7" transform="translate(208,18)"/>
<path d="M0 0 C0.66 0 1.32 0 2 0 C0.33248852 3.94139078 -2.22710649 6.7892812 -5 10 C-5.66 9.34 -6.32 8.68 -7 8 C-5.88200014 6.66079162 -4.75538103 5.32877444 -3.625 4 C-2.68527344 2.88625 -2.68527344 2.88625 -1.7265625 1.75 C-1.15679687 1.1725 -0.58703125 0.595 0 0 Z " fill="#C969E9" transform="translate(433,397)"/>
<path d="M0 0 C0.99 0.33 1.98 0.66 3 1 C0.69 3.97 -1.62 6.94 -4 10 C-4.33 9.34 -4.66 8.68 -5 8 C-4.00390625 6.0546875 -4.00390625 6.0546875 -2.5625 3.875 C-2.08941406 3.15054687 -1.61632812 2.42609375 -1.12890625 1.6796875 C-0.75636719 1.12539063 -0.38382812 0.57109375 0 0 Z " fill="#404040" transform="translate(291,294)"/>
<path d="M0 0 C0.66 0 1.32 0 2 0 C0.44499019 3.81684226 -2.03595495 6.19195732 -5 9 C-5.66 8.67 -6.32 8.34 -7 8 C-5.88200014 6.66079162 -4.75538103 5.32877444 -3.625 4 C-2.68527344 2.88625 -2.68527344 2.88625 -1.7265625 1.75 C-1.15679687 1.1725 -0.58703125 0.595 0 0 Z " fill="#CB62E9" transform="translate(79,85)"/>
<path d="M0 0 C2.95929119 2.75520215 5.03681826 5.46627288 7 9 C6.01 9 5.02 9 4 9 C0 3.85714286 0 3.85714286 0 0 Z " fill="#C866EB" transform="translate(437,105)"/>
<path d="M0 0 C0 0.66 0 1.32 0 2 C-4.95 3.485 -4.95 3.485 -10 5 C-10 4.34 -10 3.68 -10 3 C-3.375 0 -3.375 0 0 0 Z " fill="#CE6EED" transform="translate(181,23)"/>
<path d="M0 0 C0.99 0.33 1.98 0.66 3 1 C1.37660195 2.70884005 -0.29319053 4.37446717 -2 6 C-2.66 6 -3.32 6 -4 6 C-2.84826645 3.53199953 -1.95216435 1.95216435 0 0 Z " fill="#C66EEA" transform="translate(410,421)"/>
<path d="M0 0 C-1.39332574 3.36720387 -2.9789286 4.9859524 -6 7 C-5.37162381 3.35541809 -4.14650034 0 0 0 Z " fill="#B678E9" transform="translate(427,406)"/>
<path d="M0 0 C0.66 0.99 1.32 1.98 2 3 C0.625 5.5 0.625 5.5 -1 8 C-1.66 8 -2.32 8 -3 8 C-1.125 2.25 -1.125 2.25 0 0 Z " fill="#B379E8" transform="translate(461,352)"/>
<path d="M0 0 C2.97 1.98 2.97 1.98 6 4 C5.67 4.99 5.34 5.98 5 7 C3.02 5.35 1.04 3.7 -1 2 C-0.67 1.34 -0.34 0.68 0 0 Z " fill="#B47CE7" transform="translate(395,63)"/>
<path d="M0 0 C3.465 1.98 3.465 1.98 7 4 C7 4.66 7 5.32 7 6 C3.62496331 4.8141763 1.35277269 3.72426311 -1 1 C-0.67 0.67 -0.34 0.34 0 0 Z " fill="#BB75E8" transform="translate(377,50)"/>
</svg>
